<svg width="40" height="16" viewBox="0 0 40 16" fill="none" xmlns="http://www.w3.org/2000/svg">
<path d="M1.69536 5.80946L9.21802 5.13088L13.8024 0.74609C14.0431 0.516581 14.3808 0.327322 14.783 0.196624C15.1852 0.0659255 15.6381 -0.00178772 16.0981 3.58826e-05L35.3113 0.0896642C35.8656 0.0924053 36.4048 0.19618 36.8538 0.386567C37.3028 0.576955 37.6393 0.8445 37.8167 1.15203L40 4.9426V13.6578H35.4162C35.0598 14.336 34.3415 14.9294 33.3667 15.351C32.3919 15.7725 31.2119 16 30 16C28.7881 16 27.6081 15.7725 26.6333 15.351C25.6585 14.9294 24.9402 14.336 24.5838 13.6578H16.0828C15.7265 14.336 15.0082 14.9294 14.0334 15.351C13.0586 15.7725 11.8786 16 10.6667 16C9.45479 16 8.27481 15.7725 7.29999 15.351C6.32517 14.9294 5.60686 14.336 5.25052 13.6578H2.24081e-05V6.96677C-0.00216592 6.68677 0.167994 6.41568 0.479338 6.20315C0.790682 5.99061 1.22237 5.85085 1.69536 5.80946ZM22.6667 1.59192L16.0768 1.56118L12.4019 5.07639L22.6667 5.07429V1.59192ZM35.2899 1.65086L25.3333 1.60441V5.07375L37.2599 5.07126L35.2899 1.65086ZM30 14.4384C30.5933 14.4384 31.1734 14.3354 31.6667 14.1424C32.1601 13.9494 32.5446 13.6751 32.7716 13.3542C32.9987 13.0332 33.0581 12.68 32.9424 12.3393C32.8266 11.9986 32.5409 11.6856 32.1213 11.44C31.7018 11.1943 31.1672 11.0271 30.5853 10.9593C30.0033 10.8915 29.4001 10.9263 28.852 11.0592C28.3038 11.1922 27.8352 11.4173 27.5056 11.7061C27.176 11.995 27 12.3346 27 12.682C27.0009 13.1477 27.3172 13.5941 27.8797 13.9234C28.4421 14.2527 29.2046 14.4379 30 14.4384ZM10.6667 14.4384C11.26 14.4384 11.84 14.3354 12.3334 14.1424C12.8267 13.9494 13.2113 13.6751 13.4383 13.3542C13.6654 13.0332 13.7248 12.68 13.609 12.3393C13.4933 11.9986 13.2076 11.6856 12.788 11.44C12.3684 11.1943 11.8339 11.0271 11.252 10.9593C10.67 10.8915 10.0668 10.9263 9.51863 11.0592C8.97046 11.1922 8.50192 11.4173 8.17228 11.7061C7.84263 11.995 7.66669 12.3346 7.66669 12.682C7.66757 13.1477 7.98392 13.5941 8.54634 13.9234C9.10876 14.2527 9.87131 14.4379 10.6667 14.4384ZM2.66669 12.0965H5.09019C5.32446 11.3304 6.01143 10.6369 7.03088 10.1374C8.05034 9.63786 9.33734 9.36416 10.6667 9.36416C11.996 9.36416 13.283 9.63786 14.3025 10.1374C15.3219 10.6369 16.0089 11.3304 16.2432 12.0965H24.4235C24.6578 11.3304 25.3448 10.6369 26.3642 10.1374C27.3837 9.63786 28.6707 9.36416 30 9.36416C31.3293 9.36416 32.6164 9.63786 33.6358 10.1374C34.6553 10.6369 35.3422 11.3304 35.5765 12.0965H37.3333V6.63324L9.78952 6.65905L2.66669 7.30157V12.0965Z" fill="#1E1E1E"/>
<path d="M2.66669 12.0965H5.09019C5.32446 11.3304 6.01143 10.6369 7.03088 10.1374C8.05034 9.63786 9.33734 9.36416 10.6667 9.36416C11.996 9.36416 13.283 9.63786 14.3025 10.1374C15.3219 10.6369 16.0089 11.3304 16.2432 12.0965H24.4235C24.6578 11.3304 25.3448 10.6369 26.3642 10.1374C27.3837 9.63786 28.6707 9.36416 30 9.36416C31.3293 9.36416 32.6164 9.63786 33.6358 10.1374C34.6553 10.6369 35.3422 11.3304 35.5765 12.0965H37.3333V6.63324L9.78952 6.65905L2.66669 7.30157V12.0965Z" fill="#FF3D00" fill-opacity="0.89"/>
<path d="M22.6667 1.59192L16.0768 1.56118L12.4019 5.07639L22.6667 5.07429V1.59192Z" fill="#FF3D00" fill-opacity="0.89"/>
<path d="M35.2899 1.65086L25.3333 1.60441V5.07375L37.2599 5.07126L35.2899 1.65086Z" fill="#FF3D00" fill-opacity="0.89"/>
<path d="M10.6667 14.4384C11.26 14.4384 11.84 14.3354 12.3334 14.1424C12.8267 13.9494 13.2113 13.6751 13.4383 13.3542C13.6654 13.0332 13.7248 12.68 13.609 12.3393C13.4933 11.9986 13.2076 11.6856 12.788 11.44C12.3684 11.1943 11.8339 11.0271 11.252 10.9593C10.67 10.8915 10.0668 10.9263 9.51863 11.0592C8.97046 11.1922 8.50192 11.4173 8.17228 11.7061C7.84263 11.995 7.66669 12.3346 7.66669 12.682C7.66757 13.1477 7.98392 13.5941 8.54634 13.9234C9.10876 14.2527 9.87131 14.4379 10.6667 14.4384Z" fill="#FF3D00" fill-opacity="0.89"/>
<path d="M30 14.4384C30.5933 14.4384 31.1734 14.3354 31.6667 14.1424C32.1601 13.9494 32.5446 13.6751 32.7716 13.3542C32.9987 13.0332 33.0581 12.68 32.9424 12.3393C32.8266 11.9986 32.5409 11.6856 32.1213 11.44C31.7018 11.1943 31.1672 11.0271 30.5853 10.9593C30.0033 10.8915 29.4001 10.9263 28.852 11.0592C28.3038 11.1922 27.8352 11.4173 27.5056 11.7061C27.176 11.995 27 12.3346 27 12.682C27.0009 13.1477 27.3172 13.5941 27.8797 13.9234C28.4421 14.2527 29.2046 14.4379 30 14.4384Z" fill="#FF3D00" fill-opacity="0.89"/>
</svg>
