<svg width="30" height="30" viewBox="0 0 30 30" fill="none" xmlns="http://www.w3.org/2000/svg">
<path d="M3.57143 0C1.60749 0 0 1.60749 0 3.57143V26.4286C0 28.3925 1.60749 30 3.57143 30H26.4286C28.3925 30 30 28.3925 30 26.4286V3.57143C30 1.60749 28.3925 0 26.4286 0H3.57143ZM3.57143 1.42857H26.4286C27.6203 1.42857 28.5714 2.37965 28.5714 3.57143V26.4286C28.5714 27.6203 27.6203 28.5714 26.4286 28.5714H3.57143C2.37965 28.5714 1.42857 27.6203 1.42857 26.4286V3.57143C1.42857 2.37965 2.37965 1.42857 3.57143 1.42857Z" fill="white" fill-opacity="0.85"/>
</svg>
