<svg width="144" height="77" viewBox="0 0 144 77" fill="none" xmlns="http://www.w3.org/2000/svg">
<path d="M30.0114 10L1 76H14.3295L20.6023 61.2188L25.6477 52.075L32 32.5L36 44L41 32.5L45.25 52.075L51.1818 61.2188L57.4545 76H70L44.9091 10H30.0114Z" fill="#FF3D00" fill-opacity="0.89"/>
<path d="M25.6477 52.075L20.6023 61.2188H51.1818L45.25 52.075H25.6477Z" fill="#FF3D00" fill-opacity="0.89"/>
<path d="M45.25 52.075L41 32.5L36 44L32 32.5L25.6477 52.075H45.25Z" fill="#5050A9"/>
<path d="M25.6477 52.075L20.6023 61.2188M25.6477 52.075H45.25M25.6477 52.075L32 32.5L36 44L41 32.5L45.25 52.075M45.25 52.075L51.1818 61.2188M20.6023 61.2188L14.3295 76H1L30.0114 10H44.9091L70 76H57.4545L51.1818 61.2188M20.6023 61.2188H51.1818" stroke="#1E1E1E"/>
<path d="M79.169 31V11.3636H87.0312C88.4758 11.3636 89.6807 11.5778 90.6459 12.006C91.6111 12.4343 92.3366 13.0288 92.8224 13.7894C93.3082 14.5437 93.5511 15.413 93.5511 16.3974C93.5511 17.1644 93.3977 17.8388 93.0909 18.4205C92.7841 18.9957 92.3622 19.4687 91.8253 19.8395C91.2947 20.2038 90.6875 20.4627 90.0035 20.6161V20.8079C90.7514 20.8398 91.4513 21.0508 92.1033 21.4407C92.7617 21.8306 93.2954 22.3771 93.7045 23.0803C94.1136 23.777 94.3182 24.608 94.3182 25.5732C94.3182 26.6151 94.0593 27.5451 93.5415 28.3633C93.0302 29.1751 92.2727 29.8175 91.2691 30.2905C90.2656 30.7635 89.0287 31 87.5586 31H79.169ZM83.3206 27.6058H86.7052C87.8622 27.6058 88.7059 27.3853 89.2365 26.9442C89.767 26.4968 90.0323 25.9023 90.0323 25.1609C90.0323 24.6175 89.9012 24.1381 89.6392 23.7227C89.3771 23.3072 89.0032 22.9812 88.5174 22.7447C88.038 22.5082 87.4659 22.3899 86.8011 22.3899H83.3206V27.6058ZM83.3206 19.5806H86.3984C86.9673 19.5806 87.4723 19.4815 87.9133 19.2834C88.3608 19.0788 88.7123 18.7912 88.968 18.4205C89.2301 18.0497 89.3611 17.6055 89.3611 17.0877C89.3611 16.3782 89.1086 15.8061 88.6037 15.3714C88.1051 14.9368 87.3956 14.7195 86.4751 14.7195H83.3206V19.5806ZM97.4867 14.7866V11.3636H113.614V14.7866H107.602V31H103.498V14.7866H97.4867ZM134.633 21.1818C134.633 23.3232 134.227 25.1449 133.415 26.647C132.61 28.1491 131.51 29.2965 130.117 30.0891C128.73 30.8754 127.17 31.2685 125.438 31.2685C123.693 31.2685 122.127 30.8722 120.74 30.0795C119.353 29.2869 118.257 28.1396 117.451 26.6374C116.646 25.1353 116.243 23.3168 116.243 21.1818C116.243 19.0405 116.646 17.2188 117.451 15.7166C118.257 14.2145 119.353 13.0703 120.74 12.2841C122.127 11.4915 123.693 11.0952 125.438 11.0952C127.17 11.0952 128.73 11.4915 130.117 12.2841C131.51 13.0703 132.61 14.2145 133.415 15.7166C134.227 17.2188 134.633 19.0405 134.633 21.1818ZM130.424 21.1818C130.424 19.7947 130.216 18.625 129.801 17.6726C129.392 16.7202 128.813 15.9979 128.065 15.5057C127.317 15.0135 126.442 14.7674 125.438 14.7674C124.434 14.7674 123.559 15.0135 122.811 15.5057C122.063 15.9979 121.481 16.7202 121.066 17.6726C120.657 18.625 120.452 19.7947 120.452 21.1818C120.452 22.5689 120.657 23.7386 121.066 24.6911C121.481 25.6435 122.063 26.3658 122.811 26.858C123.559 27.3501 124.434 27.5962 125.438 27.5962C126.442 27.5962 127.317 27.3501 128.065 26.858C128.813 26.3658 129.392 25.6435 129.801 24.6911C130.216 23.7386 130.424 22.5689 130.424 21.1818ZM73.1213 57.7866V54.3636H89.2485V57.7866H83.2367V74H79.133V57.7866H73.1213ZM97.271 54.3636V74H93.1194V54.3636H97.271ZM101.49 62.9066V66.1474H95.2191V62.9066H101.49ZM118.585 64.1818C118.585 66.3232 118.179 68.1449 117.368 69.647C116.562 71.1491 115.463 72.2965 114.069 73.0891C112.682 73.8754 111.123 74.2685 109.39 74.2685C107.645 74.2685 106.079 73.8722 104.692 73.0795C103.305 72.2869 102.209 71.1396 101.403 69.6374C100.598 68.1353 100.195 66.3168 100.195 64.1818C100.195 62.0405 100.598 60.2188 101.403 58.7166C102.209 57.2145 103.305 56.0703 104.692 55.2841C106.079 54.4915 107.645 54.0952 109.39 54.0952C111.123 54.0952 112.682 54.4915 114.069 55.2841C115.463 56.0703 116.562 57.2145 117.368 58.7166C118.179 60.2188 118.585 62.0405 118.585 64.1818ZM114.376 64.1818C114.376 62.7947 114.168 61.625 113.753 60.6726C113.344 59.7202 112.765 58.9979 112.017 58.5057C111.27 58.0135 110.394 57.7674 109.39 57.7674C108.387 57.7674 107.511 58.0135 106.763 58.5057C106.015 58.9979 105.434 59.7202 105.018 60.6726C104.609 61.625 104.405 62.7947 104.405 64.1818C104.405 65.5689 104.609 66.7386 105.018 67.6911C105.434 68.6435 106.015 69.3658 106.763 69.858C107.511 70.3501 108.387 70.5962 109.39 70.5962C110.394 70.5962 111.27 70.3501 112.017 69.858C112.765 69.3658 113.344 68.6435 113.753 67.6911C114.168 66.7386 114.376 65.5689 114.376 64.1818ZM122.864 74V54.3636H127.015V62.4656H135.443V54.3636H139.585V74H135.443V65.8885H127.015V74H122.864Z" fill="#FE3D00"/>
<path d="M79.169 31H78.169V32H79.169V31ZM79.169 11.3636V10.3636H78.169V11.3636H79.169ZM90.6459 12.006L90.2403 12.9201L90.6459 12.006ZM92.8224 13.7894L91.9796 14.3277L91.9817 14.3309L92.8224 13.7894ZM93.0909 18.4205L93.9732 18.891L93.9754 18.887L93.0909 18.4205ZM91.8253 19.8395L92.3914 20.6638L92.3934 20.6624L91.8253 19.8395ZM90.0035 20.6161L89.7847 19.6404L89.0035 19.8156V20.6161H90.0035ZM90.0035 20.8079H89.0035V21.7661L89.9608 21.807L90.0035 20.8079ZM92.1033 21.4407L91.59 22.2989L91.5937 22.3011L92.1033 21.4407ZM93.7045 23.0803L92.8402 23.5832L92.8422 23.5866L93.7045 23.0803ZM93.5415 28.3633L92.6965 27.8285L92.6954 27.8303L93.5415 28.3633ZM91.2691 30.2905L90.8428 29.3859L91.2691 30.2905ZM83.3206 27.6058H82.3206V28.6058H83.3206V27.6058ZM89.2365 26.9442L89.8758 27.7132L89.8812 27.7087L89.2365 26.9442ZM89.6392 23.7227L88.7934 24.2562L89.6392 23.7227ZM88.5174 22.7447L88.0749 23.6415L88.0796 23.6438L88.5174 22.7447ZM83.3206 22.3899V21.3899H82.3206V22.3899H83.3206ZM83.3206 19.5806H82.3206V20.5806H83.3206V19.5806ZM87.9133 19.2834L88.3231 20.1956L88.3291 20.1929L87.9133 19.2834ZM88.968 18.4205L88.1514 17.8432L88.1448 17.8527L88.968 18.4205ZM88.6037 15.3714L87.9465 16.1252L87.9513 16.1293L88.6037 15.3714ZM83.3206 14.7195V13.7195H82.3206V14.7195H83.3206ZM80.169 31V11.3636H78.169V31H80.169ZM79.169 12.3636H87.0312V10.3636H79.169V12.3636ZM87.0312 12.3636C88.3845 12.3636 89.4407 12.5653 90.2403 12.9201L91.0515 11.092C89.9208 10.5903 88.5672 10.3636 87.0312 10.3636V12.3636ZM90.2403 12.9201C91.0573 13.2826 91.6165 13.7591 91.9796 14.3277L93.6652 13.2512C93.0567 12.2985 92.165 11.586 91.0515 11.092L90.2403 12.9201ZM91.9817 14.3309C92.3535 14.9081 92.5511 15.5857 92.5511 16.3974H94.5511C94.5511 15.2403 94.2629 14.1792 93.6631 13.2479L91.9817 14.3309ZM92.5511 16.3974C92.5511 17.0289 92.4256 17.5383 92.2064 17.9539L93.9754 18.887C94.3698 18.1393 94.5511 17.2999 94.5511 16.3974H92.5511ZM92.2085 17.9499C91.9769 18.3842 91.6628 18.7365 91.2571 19.0166L92.3934 20.6624C93.0616 20.201 93.5912 19.6073 93.9732 18.891L92.2085 17.9499ZM91.2591 19.0152C90.8427 19.3012 90.3554 19.5123 89.7847 19.6404L90.2224 21.5919C91.0195 21.4131 91.7468 21.1065 92.3914 20.6638L91.2591 19.0152ZM89.0035 20.6161V20.8079H91.0035V20.6161H89.0035ZM89.9608 21.807C90.54 21.8317 91.0785 21.993 91.59 22.2989L92.6166 20.5825C91.8241 20.1085 90.9628 19.848 90.0462 19.8088L89.9608 21.807ZM91.5937 22.3011C92.096 22.5986 92.5113 23.0179 92.8402 23.5831L94.5689 22.5774C94.0796 21.7364 93.4274 21.0626 92.6129 20.5803L91.5937 22.3011ZM92.8422 23.5866C93.145 24.1024 93.3182 24.7512 93.3182 25.5732H95.3181C95.3181 24.4647 95.0822 23.4516 94.5669 22.5739L92.8422 23.5866ZM93.3182 25.5732C93.3182 26.4407 93.1053 27.1826 92.6965 27.8285L94.3865 28.898C95.0133 27.9076 95.3181 26.7894 95.3181 25.5732H93.3182ZM92.6954 27.8303C92.3008 28.4568 91.7014 28.9812 90.8428 29.3859L91.6955 31.195C92.844 30.6537 93.7595 29.8934 94.3876 28.8963L92.6954 27.8303ZM90.8428 29.3859C90.0086 29.7791 88.9271 30 87.5586 30V32C89.1304 32 90.5226 31.7479 91.6955 31.195L90.8428 29.3859ZM87.5586 30H79.169V32H87.5586V30ZM83.3206 28.6058H86.7052V26.6058H83.3206V28.6058ZM86.7052 28.6058C87.9504 28.6058 89.0789 28.3756 89.8757 27.7132L88.5972 26.1753C88.3329 26.395 87.774 26.6058 86.7052 26.6058V28.6058ZM89.8812 27.7087C90.654 27.0569 91.0323 26.1741 91.0323 25.1609H89.0323C89.0323 25.6306 88.88 25.9367 88.5918 26.1798L89.8812 27.7087ZM91.0323 25.1609C91.0323 24.4494 90.8583 23.781 90.485 23.1892L88.7934 24.2562C88.9442 24.4953 89.0323 24.7857 89.0323 25.1609H91.0323ZM90.485 23.1892C90.1138 22.6007 89.591 22.1552 88.9551 21.8456L88.0796 23.6438C88.4153 23.8072 88.6404 24.0137 88.7934 24.2562L90.485 23.1892ZM88.9598 21.8479C88.3134 21.529 87.5828 21.3899 86.8011 21.3899V23.3899C87.349 23.3899 87.7625 23.4874 88.0749 23.6415L88.9598 21.8479ZM86.8011 21.3899H83.3206V23.3899H86.8011V21.3899ZM82.3206 22.3899V27.6058H84.3206V22.3899H82.3206ZM83.3206 20.5806H86.3984V18.5806H83.3206V20.5806ZM86.3984 20.5806C87.0839 20.5806 87.7325 20.4609 88.3231 20.1955L87.5035 18.3712C87.2121 18.5021 86.8507 18.5806 86.3984 18.5806V20.5806ZM88.3291 20.1929C88.925 19.9204 89.4237 19.5211 89.7912 18.9882L88.1448 17.8527C88.001 18.0613 87.7965 18.2373 87.4976 18.3739L88.3291 20.1929ZM89.7846 18.9977C90.1823 18.4351 90.3611 17.7821 90.3611 17.0877H88.3611C88.3611 17.4288 88.2779 17.6643 88.1514 17.8432L89.7846 18.9977ZM90.3611 17.0877C90.3611 16.1085 89.9975 15.2518 89.256 14.6135L87.9513 16.1293C88.2198 16.3605 88.3611 16.6479 88.3611 17.0877H90.3611ZM89.2608 14.6177C88.5198 13.9716 87.5428 13.7195 86.4751 13.7195V15.7195C87.2483 15.7195 87.6904 15.9019 87.9465 16.1252L89.2608 14.6177ZM86.4751 13.7195H83.3206V15.7195H86.4751V13.7195ZM82.3206 14.7195V19.5806H84.3206V14.7195H82.3206ZM97.4867 14.7866H96.4867V15.7866H97.4867V14.7866ZM97.4867 11.3636V10.3636H96.4867V11.3636H97.4867ZM113.614 11.3636H114.614V10.3636H113.614V11.3636ZM113.614 14.7866V15.7866H114.614V14.7866H113.614ZM107.602 14.7866V13.7866H106.602V14.7866H107.602ZM107.602 31V32H108.602V31H107.602ZM103.498 31H102.498V32H103.498V31ZM103.498 14.7866H104.498V13.7866H103.498V14.7866ZM98.4867 14.7866V11.3636H96.4867V14.7866H98.4867ZM97.4867 12.3636H113.614V10.3636H97.4867V12.3636ZM112.614 11.3636V14.7866H114.614V11.3636H112.614ZM113.614 13.7866H107.602V15.7866H113.614V13.7866ZM106.602 14.7866V31H108.602V14.7866H106.602ZM107.602 30H103.498V32H107.602V30ZM104.498 31V14.7866H102.498V31H104.498ZM103.498 13.7866H97.4867V15.7866H103.498V13.7866ZM133.415 26.647L132.536 26.1716L132.534 26.1745L133.415 26.647ZM130.117 30.0891L130.61 30.9591L130.611 30.9584L130.117 30.0891ZM120.74 30.0795L121.236 29.2113L120.74 30.0795ZM117.451 26.6374L116.57 27.11L117.451 26.6374ZM117.451 15.7166L118.333 16.1892L117.451 15.7166ZM120.74 12.2841L121.233 13.1541L121.236 13.1523L120.74 12.2841ZM130.117 12.2841L129.621 13.1523L129.626 13.155L130.117 12.2841ZM133.415 15.7166L132.534 16.1892L132.536 16.1921L133.415 15.7166ZM129.801 17.6726L128.882 18.0673L128.884 18.0724L129.801 17.6726ZM128.065 15.5057L127.515 16.341L128.065 15.5057ZM122.811 15.5057L123.361 16.341L122.811 15.5057ZM121.066 17.6726L120.149 17.2727L120.147 17.2779L121.066 17.6726ZM121.066 24.6911L120.147 25.0857L120.149 25.0909L121.066 24.6911ZM122.811 26.858L123.361 26.0226L122.811 26.858ZM128.065 26.858L127.515 26.0226L128.065 26.858ZM129.801 24.6911L128.884 24.2912L128.882 24.2964L129.801 24.6911ZM133.633 21.1818C133.633 23.1986 133.251 24.848 132.536 26.1716L134.295 27.1225C135.203 25.4417 135.633 23.4478 135.633 21.1818H133.633ZM132.534 26.1745C131.812 27.5215 130.842 28.5264 129.623 29.2199L130.611 30.9584C132.179 30.0666 133.408 28.7767 134.297 27.1196L132.534 26.1745ZM129.624 29.2192C128.4 29.9129 127.013 30.2685 125.438 30.2685V32.2685C127.328 32.2685 129.06 31.8378 130.61 30.9591L129.624 29.2192ZM125.438 30.2685C123.851 30.2685 122.458 29.9097 121.236 29.2113L120.244 30.9478C121.796 31.8346 123.536 32.2685 125.438 32.2685V30.2685ZM121.236 29.2113C120.023 28.5181 119.055 27.5131 118.333 26.1649L116.57 27.11C117.458 28.766 118.683 30.0557 120.244 30.9478L121.236 29.2113ZM118.333 26.1649C117.622 24.8403 117.243 23.1927 117.243 21.1818H115.243C115.243 23.4408 115.669 25.4303 116.57 27.11L118.333 26.1649ZM117.243 21.1818C117.243 19.1639 117.622 17.5134 118.333 16.1892L116.57 15.2441C115.669 16.9241 115.243 18.917 115.243 21.1818H117.243ZM118.333 16.1892C119.055 14.8415 120.022 13.8406 121.233 13.1541L120.247 11.4141C118.684 12.3 117.458 13.5875 116.57 15.2441L118.333 16.1892ZM121.236 13.1523C122.458 12.4539 123.851 12.0952 125.438 12.0952V10.0952C123.536 10.0952 121.796 10.5291 120.244 11.4158L121.236 13.1523ZM125.438 12.0952C127.011 12.0952 128.398 12.4533 129.621 13.1523L130.613 11.4158C129.062 10.5297 127.329 10.0952 125.438 10.0952V12.0952ZM129.626 13.155C130.843 13.8419 131.812 14.8427 132.534 16.1892L134.297 15.2441C133.408 13.5863 132.178 12.2987 130.608 11.4132L129.626 13.155ZM132.536 16.1921C133.251 17.5156 133.633 19.1651 133.633 21.1818H135.633C135.633 18.9159 135.203 16.9219 134.295 15.2412L132.536 16.1921ZM131.424 21.1818C131.424 19.7008 131.203 18.3859 130.717 17.2727L128.884 18.0724C129.229 18.8641 129.424 19.8887 129.424 21.1818H131.424ZM130.719 17.2779C130.246 16.1747 129.551 15.2863 128.615 14.6704L127.515 16.341C128.075 16.7094 128.537 17.2656 128.882 18.0672L130.719 17.2779ZM128.615 14.6704C127.685 14.0581 126.613 13.7674 125.438 13.7674V15.7674C126.271 15.7674 126.95 15.9689 127.515 16.341L128.615 14.6704ZM125.438 13.7674C124.264 13.7674 123.192 14.0581 122.261 14.6704L123.361 16.341C123.926 15.9689 124.605 15.7674 125.438 15.7674V13.7674ZM122.261 14.6704C121.327 15.2853 120.63 16.1719 120.149 17.2727L121.982 18.0724C122.333 17.2685 122.799 16.7104 123.361 16.341L122.261 14.6704ZM120.147 17.2779C119.67 18.3895 119.452 19.7024 119.452 21.1818H121.452C121.452 19.887 121.644 18.8605 121.985 18.0672L120.147 17.2779ZM119.452 21.1818C119.452 22.6612 119.67 23.9741 120.147 25.0857L121.985 24.2964C121.644 23.5032 121.452 22.4766 121.452 21.1818H119.452ZM120.149 25.0909C120.63 26.1918 121.327 27.0783 122.261 27.6933L123.361 26.0226C122.799 25.6532 122.333 25.0952 121.982 24.2912L120.149 25.0909ZM122.261 27.6933C123.192 28.3056 124.264 28.5962 125.438 28.5962V26.5962C124.605 26.5962 123.926 26.3947 123.361 26.0226L122.261 27.6933ZM125.438 28.5962C126.613 28.5962 127.685 28.3056 128.615 27.6933L127.515 26.0226C126.95 26.3947 126.271 26.5962 125.438 26.5962V28.5962ZM128.615 27.6933C129.551 27.0773 130.246 26.1889 130.719 25.0857L128.882 24.2964C128.537 25.098 128.075 25.6542 127.515 26.0226L128.615 27.6933ZM130.717 25.0909C131.203 23.9777 131.424 22.6628 131.424 21.1818H129.424C129.424 22.4749 129.229 23.4996 128.884 24.2912L130.717 25.0909ZM73.1213 57.7866H72.1213V58.7866H73.1213V57.7866ZM73.1213 54.3636V53.3636H72.1213V54.3636H73.1213ZM89.2485 54.3636H90.2485V53.3636H89.2485V54.3636ZM89.2485 57.7866V58.7866H90.2485V57.7866H89.2485ZM83.2367 57.7866V56.7866H82.2367V57.7866H83.2367ZM83.2367 74V75H84.2367V74H83.2367ZM79.133 74H78.133V75H79.133V74ZM79.133 57.7866H80.133V56.7866H79.133V57.7866ZM74.1213 57.7866V54.3636H72.1213V57.7866H74.1213ZM73.1213 55.3636H89.2485V53.3636H73.1213V55.3636ZM88.2485 54.3636V57.7866H90.2485V54.3636H88.2485ZM89.2485 56.7866H83.2367V58.7866H89.2485V56.7866ZM82.2367 57.7866V74H84.2367V57.7866H82.2367ZM83.2367 73H79.133V75H83.2367V73ZM80.133 74V57.7866H78.133V74H80.133ZM79.133 56.7866H73.1213V58.7866H79.133V56.7866ZM97.271 54.3636H98.271V53.3636H97.271V54.3636ZM97.271 74V75H98.271V74H97.271ZM93.1194 74H92.1194V75H93.1194V74ZM93.1194 54.3636V53.3636H92.1194V54.3636H93.1194ZM101.49 62.9066H102.49V61.9066H101.49V62.9066ZM101.49 66.1474V67.1474H102.49V66.1474H101.49ZM95.2191 66.1474H94.2191V67.1474H95.2191V66.1474ZM95.2191 62.9066V61.9066H94.2191V62.9066H95.2191ZM117.368 69.647L116.488 69.1716L116.486 69.1745L117.368 69.647ZM114.069 73.0891L114.562 73.9591L114.564 73.9584L114.069 73.0891ZM104.692 73.0795L105.188 72.2113L104.692 73.0795ZM101.403 69.6374L100.522 70.11L101.403 69.6374ZM101.403 58.7166L102.285 59.1892L101.403 58.7166ZM104.692 55.2841L105.185 56.1541L105.188 56.1523L104.692 55.2841ZM114.069 55.2841L113.573 56.1523L113.578 56.155L114.069 55.2841ZM117.368 58.7166L116.486 59.1892L116.488 59.1921L117.368 58.7166ZM113.753 60.6726L112.834 61.0673L112.836 61.0724L113.753 60.6726ZM112.017 58.5057L112.567 57.6704L112.017 58.5057ZM105.018 60.6726L104.102 60.2727L104.099 60.2779L105.018 60.6726ZM105.018 67.691L104.099 68.0857L104.102 68.0909L105.018 67.691ZM112.017 69.858L112.567 70.6933L112.017 69.858ZM113.753 67.691L112.836 67.2912L112.834 67.2964L113.753 67.691ZM96.271 54.3636V74H98.271V54.3636H96.271ZM97.271 73H93.1194V75H97.271V73ZM94.1194 74V54.3636H92.1194V74H94.1194ZM93.1194 55.3636H97.271V53.3636H93.1194V55.3636ZM100.49 62.9066V66.1474H102.49V62.9066H100.49ZM101.49 65.1474H95.2191V67.1474H101.49V65.1474ZM96.2191 66.1474V62.9066H94.2191V66.1474H96.2191ZM95.2191 63.9066H101.49V61.9066H95.2191V63.9066ZM117.585 64.1818C117.585 66.1986 117.203 67.848 116.488 69.1716L118.247 70.1225C119.156 68.4417 119.585 66.4478 119.585 64.1818H117.585ZM116.486 69.1745C115.764 70.5215 114.794 71.5264 113.575 72.2199L114.564 73.9584C116.131 73.0666 117.36 71.7767 118.249 70.1196L116.486 69.1745ZM113.576 72.2192C112.352 72.9129 110.965 73.2685 109.39 73.2685V75.2685C111.28 75.2685 113.012 74.8378 114.562 73.9591L113.576 72.2192ZM109.39 73.2685C107.803 73.2685 106.411 72.9097 105.188 72.2113L104.196 73.9478C105.748 74.8346 107.488 75.2685 109.39 75.2685V73.2685ZM105.188 72.2113C103.975 71.5181 103.008 70.5131 102.285 69.1649L100.522 70.11C101.41 71.766 102.635 73.0557 104.196 73.9478L105.188 72.2113ZM102.285 69.1649C101.575 67.8403 101.195 66.1927 101.195 64.1818H99.1953C99.1953 66.4408 99.6216 68.4303 100.522 70.11L102.285 69.1649ZM101.195 64.1818C101.195 62.1639 101.575 60.5134 102.285 59.1892L100.522 58.2441C99.6213 59.9241 99.1953 61.917 99.1953 64.1818H101.195ZM102.285 59.1892C103.007 57.8415 103.974 56.8406 105.185 56.1541L104.199 54.4141C102.636 55.3 101.41 56.5875 100.522 58.2441L102.285 59.1892ZM105.188 56.1523C106.411 55.4539 107.803 55.0952 109.39 55.0952V53.0952C107.488 53.0952 105.748 53.529 104.196 54.4158L105.188 56.1523ZM109.39 55.0952C110.964 55.0952 112.35 55.4533 113.573 56.1523L114.565 54.4158C113.015 53.5297 111.281 53.0952 109.39 53.0952V55.0952ZM113.578 56.155C114.795 56.8419 115.764 57.8427 116.486 59.1892L118.249 58.2441C117.36 56.5863 116.13 55.2987 114.561 54.4132L113.578 56.155ZM116.488 59.1921C117.203 60.5156 117.585 62.1651 117.585 64.1818H119.585C119.585 61.9159 119.156 59.9219 118.247 58.2412L116.488 59.1921ZM115.376 64.1818C115.376 62.7008 115.155 61.3859 114.669 60.2727L112.836 61.0724C113.182 61.8641 113.376 62.8887 113.376 64.1818H115.376ZM114.672 60.2779C114.198 59.1747 113.503 58.2863 112.567 57.6704L111.468 59.341C112.027 59.7094 112.49 60.2656 112.834 61.0672L114.672 60.2779ZM112.567 57.6704C111.637 57.058 110.565 56.7674 109.39 56.7674V58.7674C110.223 58.7674 110.902 58.9689 111.468 59.341L112.567 57.6704ZM109.39 56.7674C108.216 56.7674 107.144 57.058 106.213 57.6704L107.313 59.341C107.878 58.9689 108.558 58.7674 109.39 58.7674V56.7674ZM106.213 57.6704C105.279 58.2853 104.582 59.1719 104.102 60.2727L105.935 61.0724C106.285 60.2685 106.752 59.7104 107.313 59.341L106.213 57.6704ZM104.099 60.2779C103.622 61.3895 103.405 62.7024 103.405 64.1818H105.405C105.405 62.887 105.596 61.8605 105.937 61.0672L104.099 60.2779ZM103.405 64.1818C103.405 65.6612 103.622 66.9741 104.099 68.0857L105.937 67.2964C105.596 66.5032 105.405 65.4766 105.405 64.1818H103.405ZM104.102 68.0909C104.582 69.1918 105.279 70.0783 106.213 70.6933L107.313 69.0226C106.752 68.6532 106.285 68.0952 105.935 67.2912L104.102 68.0909ZM106.213 70.6933C107.144 71.3056 108.216 71.5962 109.39 71.5962V69.5962C108.558 69.5962 107.878 69.3947 107.313 69.0226L106.213 70.6933ZM109.39 71.5962C110.565 71.5962 111.637 71.3056 112.567 70.6933L111.468 69.0226C110.902 69.3947 110.223 69.5962 109.39 69.5962V71.5962ZM112.567 70.6933C113.503 70.0773 114.198 69.1889 114.672 68.0857L112.834 67.2964C112.49 68.098 112.027 68.6542 111.468 69.0226L112.567 70.6933ZM114.669 68.0909C115.155 66.9777 115.376 65.6628 115.376 64.1818H113.376C113.376 65.4749 113.182 66.4996 112.836 67.2912L114.669 68.0909ZM122.864 74H121.864V75H122.864V74ZM122.864 54.3636V53.3636H121.864V54.3636H122.864ZM127.015 54.3636H128.015V53.3636H127.015V54.3636ZM127.015 62.4656H126.015V63.4656H127.015V62.4656ZM135.443 62.4656V63.4656H136.443V62.4656H135.443ZM135.443 54.3636V53.3636H134.443V54.3636H135.443ZM139.585 54.3636H140.585V53.3636H139.585V54.3636ZM139.585 74V75H140.585V74H139.585ZM135.443 74H134.443V75H135.443V74ZM135.443 65.8885H136.443V64.8885H135.443V65.8885ZM127.015 65.8885V64.8885H126.015V65.8885H127.015ZM127.015 74V75H128.015V74H127.015ZM123.864 74V54.3636H121.864V74H123.864ZM122.864 55.3636H127.015V53.3636H122.864V55.3636ZM126.015 54.3636V62.4656H128.015V54.3636H126.015ZM127.015 63.4656H135.443V61.4656H127.015V63.4656ZM136.443 62.4656V54.3636H134.443V62.4656H136.443ZM135.443 55.3636H139.585V53.3636H135.443V55.3636ZM138.585 54.3636V74H140.585V54.3636H138.585ZM139.585 73H135.443V75H139.585V73ZM136.443 74V65.8885H134.443V74H136.443ZM135.443 64.8885H127.015V66.8885H135.443V64.8885ZM126.015 65.8885V74H128.015V65.8885H126.015ZM127.015 73H122.864V75H127.015V73Z" fill="#1E1E1E"/>
<path d="M87.6954 40.8095L95.218 40.1309L99.8024 35.7461C100.043 35.5166 100.381 35.3273 100.783 35.1966C101.185 35.0659 101.638 34.9982 102.098 35L121.311 35.0897C121.866 35.0924 122.405 35.1962 122.854 35.3866C123.303 35.577 123.639 35.8445 123.817 36.152L126 39.9426V48.6578H121.416C121.06 49.336 120.342 49.9294 119.367 50.351C118.392 50.7725 117.212 51 116 51C114.788 51 113.608 50.7725 112.633 50.351C111.658 49.9294 110.94 49.336 110.584 48.6578H102.083C101.727 49.336 101.008 49.9294 100.033 50.351C99.0586 50.7725 97.8786 51 96.6667 51C95.4548 51 94.2748 50.7725 93.3 50.351C92.3252 49.9294 91.6069 49.336 91.2505 48.6578H86V41.9668C85.9978 41.6868 86.168 41.4157 86.4793 41.2031C86.7907 40.9906 87.2224 40.8508 87.6954 40.8095ZM108.667 36.5919L102.077 36.5612L98.4018 40.0764L108.667 40.0743V36.5919ZM121.29 36.6509L111.333 36.6044V40.0738L123.26 40.0713L121.29 36.6509ZM116 49.4384C116.593 49.4384 117.173 49.3354 117.667 49.1424C118.16 48.9494 118.545 48.6751 118.772 48.3542C118.999 48.0332 119.058 47.68 118.942 47.3393C118.827 46.9986 118.541 46.6856 118.121 46.44C117.702 46.1943 117.167 46.0271 116.585 45.9593C116.003 45.8915 115.4 45.9263 114.852 46.0592C114.304 46.1922 113.835 46.4173 113.506 46.7061C113.176 46.995 113 47.3346 113 47.682C113.001 48.1477 113.317 48.5941 113.88 48.9234C114.442 49.2527 115.205 49.4379 116 49.4384ZM96.6667 49.4384C97.26 49.4384 97.84 49.3354 98.3334 49.1424C98.8267 48.9494 99.2113 48.6751 99.4383 48.3542C99.6654 48.0332 99.7248 47.68 99.609 47.3393C99.4933 46.9986 99.2076 46.6856 98.788 46.44C98.3684 46.1943 97.8339 46.0271 97.252 45.9593C96.67 45.8915 96.0668 45.9263 95.5186 46.0592C94.9705 46.1922 94.5019 46.4173 94.1723 46.7061C93.8426 46.995 93.6667 47.3346 93.6667 47.682C93.6676 48.1477 93.9839 48.5941 94.5463 48.9234C95.1088 49.2527 95.8713 49.4379 96.6667 49.4384ZM88.6667 47.0965H91.0902C91.3245 46.3304 92.0114 45.6369 93.0309 45.1374C94.0503 44.6379 95.3373 44.3642 96.6667 44.3642C97.996 44.3642 99.283 44.6379 100.302 45.1374C101.322 45.6369 102.009 46.3304 102.243 47.0965H110.424C110.658 46.3304 111.345 45.6369 112.364 45.1374C113.384 44.6379 114.671 44.3642 116 44.3642C117.329 44.3642 118.616 44.6379 119.636 45.1374C120.655 45.6369 121.342 46.3304 121.577 47.0965H123.333V41.6332L95.7895 41.659L88.6667 42.3016V47.0965Z" fill="#1E1E1E"/>
<path d="M88.6667 47.0965H91.0902C91.3245 46.3304 92.0114 45.6369 93.0309 45.1374C94.0503 44.6379 95.3373 44.3642 96.6667 44.3642C97.996 44.3642 99.283 44.6379 100.302 45.1374C101.322 45.6369 102.009 46.3304 102.243 47.0965H110.424C110.658 46.3304 111.345 45.6369 112.364 45.1374C113.384 44.6379 114.671 44.3642 116 44.3642C117.329 44.3642 118.616 44.6379 119.636 45.1374C120.655 45.6369 121.342 46.3304 121.577 47.0965H123.333V41.6332L95.7895 41.659L88.6667 42.3016V47.0965Z" fill="#FF3D00" fill-opacity="0.89"/>
<path d="M108.667 36.5919L102.077 36.5612L98.4018 40.0764L108.667 40.0743V36.5919Z" fill="#FF3D00" fill-opacity="0.89"/>
<path d="M121.29 36.6509L111.333 36.6044V40.0738L123.26 40.0713L121.29 36.6509Z" fill="#FF3D00" fill-opacity="0.89"/>
<path d="M96.6667 49.4384C97.26 49.4384 97.84 49.3354 98.3334 49.1424C98.8267 48.9494 99.2113 48.6751 99.4383 48.3542C99.6654 48.0332 99.7248 47.68 99.609 47.3393C99.4933 46.9986 99.2076 46.6856 98.788 46.44C98.3684 46.1943 97.8339 46.0271 97.252 45.9593C96.67 45.8915 96.0668 45.9263 95.5186 46.0592C94.9705 46.1922 94.5019 46.4173 94.1723 46.7061C93.8426 46.995 93.6667 47.3346 93.6667 47.682C93.6676 48.1477 93.9839 48.5941 94.5463 48.9234C95.1088 49.2527 95.8713 49.4379 96.6667 49.4384Z" fill="#FF3D00" fill-opacity="0.89"/>
<path d="M116 49.4384C116.593 49.4384 117.173 49.3354 117.667 49.1424C118.16 48.9494 118.545 48.6751 118.772 48.3542C118.999 48.0332 119.058 47.68 118.942 47.3393C118.827 46.9986 118.541 46.6856 118.121 46.44C117.702 46.1943 117.167 46.0271 116.585 45.9593C116.003 45.8915 115.4 45.9263 114.852 46.0592C114.304 46.1922 113.835 46.4173 113.506 46.7061C113.176 46.995 113 47.3346 113 47.682C113.001 48.1477 113.317 48.5941 113.88 48.9234C114.442 49.2527 115.205 49.4379 116 49.4384Z" fill="#FF3D00" fill-opacity="0.89"/>
</svg>
