<svg width="64" height="32" viewBox="0 0 64 32" fill="none" xmlns="http://www.w3.org/2000/svg">
<g clip-path="url(#clip0_79_146)">
<path d="M56.4706 0H7.52942C3.37104 0 0 3.37104 0 7.52942V24.4706C0 28.629 3.37104 32 7.52942 32H56.4706C60.629 32 64 28.629 64 24.4706V7.52942C64 3.37104 60.629 0 56.4706 0Z" fill="#CCC9C9"/>
<path d="M37.0785 7.19629H26.8906V25.4999H37.0785V7.19629Z" fill="#FF5A00"/>
<path d="M27.5691 16.3479C27.5691 12.6291 29.3173 9.32855 31.9999 7.19602C30.0257 5.64373 27.5351 4.70557 24.8187 4.70557C18.3834 4.70557 13.1764 9.91255 13.1764 16.3479C13.1764 22.7831 18.3834 27.99 24.8187 27.99C27.5351 27.99 30.0257 27.0519 31.9999 25.4996C29.3135 23.3972 27.5691 20.0666 27.5691 16.3479Z" fill="#EB001B"/>
<path d="M50.8235 16.3479C50.8235 22.7831 45.6166 27.99 39.1813 27.99C36.4648 27.99 33.9743 27.0519 32 25.4996C34.7166 23.3633 36.4309 20.0666 36.4309 16.3479C36.4309 12.6291 34.6826 9.32855 32 7.19602C33.9705 5.64373 36.461 4.70557 39.1775 4.70557C45.6166 4.70557 50.8235 9.94646 50.8235 16.3479Z" fill="#F79E1B"/>
</g>
<defs>
<clipPath id="clip0_79_146">
<rect width="64" height="32" fill="white"/>
</clipPath>
</defs>
</svg>
