<svg width="64" height="32" viewBox="0 0 64 32" fill="none" xmlns="http://www.w3.org/2000/svg">
<g clip-path="url(#clip0_79_154)">
<path d="M56.4709 0H7.52914C3.37091 0 0 3.37091 0 7.52914V24.4709C0 28.6291 3.37091 32 7.52914 32H56.4709C60.6291 32 64 28.6291 64 24.4709V7.52914C64 3.37091 60.6291 0 56.4709 0Z" fill="#CCC9C9"/>
<path fill-rule="evenodd" clip-rule="evenodd" d="M13.7634 9.41238C14.1839 9.4101 15.4331 9.2981 15.9622 11.0844C16.5397 13.0523 17.1077 15.023 17.6662 16.9964H17.9839C18.8194 14.1095 19.3931 12.1392 19.7062 11.0844C20.2411 9.27867 21.5771 9.41238 22.1119 9.41238H26.2377V22.2467H22.0319V14.6832H21.7508L19.4068 22.2467H16.2434L13.8994 14.6775H13.6171V22.2467H9.41138V9.41238H13.7634ZM32.2777 9.41238V16.9815H32.6125L35.4639 10.7575C36.0171 9.51867 37.1965 9.41238 37.1965 9.41238H41.2651V22.2467H36.9737V14.6775H36.6377L33.8422 20.9015C33.2891 22.1358 32.0525 22.2467 32.0525 22.2467H27.9839V9.41238H32.2777ZM56.1039 15.5118C55.5051 17.209 53.6239 18.4238 51.5439 18.4238H47.0411V22.2467H42.9588V15.5118H56.1039Z" fill="#0F754E"/>
<path fill-rule="evenodd" clip-rule="evenodd" d="M51.7406 9.4126H42.7463C42.9601 12.2697 45.4206 14.7155 47.9681 14.7155H56.3886C56.8755 12.3417 55.2023 9.4126 51.7406 9.4126Z" fill="url(#paint0_linear_79_154)"/>
</g>
<defs>
<linearGradient id="paint0_linear_79_154" x1="56.4721" y1="12.7486" x2="42.7452" y2="12.7486" gradientUnits="userSpaceOnUse">
<stop stop-color="#1F5CD7"/>
<stop offset="1" stop-color="#02AEFF"/>
</linearGradient>
<clipPath id="clip0_79_154">
<rect width="64" height="32" fill="white"/>
</clipPath>
</defs>
</svg>
