<svg width="41" height="41" viewBox="0 0 41 41" fill="none" xmlns="http://www.w3.org/2000/svg">
<g opacity="0.9" clip-path="url(#clip0_84_193)">
<path d="M20.5 41C31.8218 41 41 31.8218 41 20.5C41 9.17816 31.8218 0 20.5 0C9.17816 0 0 9.17816 0 20.5C0 31.8218 9.17816 41 20.5 41Z" fill="url(#paint0_linear_84_193)"/>
<path d="M13.8766 21.9985L16.3088 28.7303C16.3088 28.7303 16.6129 29.3602 16.9385 29.3602C17.2641 29.3602 22.1071 24.322 22.1071 24.322L27.4926 13.9199L13.9634 20.2607L13.8766 21.9985Z" fill="#C8DAEA"/>
<path d="M17.1015 23.7251L16.6346 28.6871C16.6346 28.6871 16.4391 30.2075 17.9592 28.6871C19.4793 27.1667 20.9343 25.9943 20.9343 25.9943" fill="#A9C6D8"/>
<path d="M13.9205 22.2385L8.91752 20.6084C8.91752 20.6084 8.31961 20.3658 8.51213 19.8157C8.55177 19.7023 8.63172 19.6058 8.87088 19.4399C9.97942 18.6672 29.389 11.6909 29.389 11.6909C29.389 11.6909 29.937 11.5062 30.2602 11.6291C30.3402 11.6538 30.4122 11.6994 30.4687 11.7611C30.5253 11.8227 30.5645 11.8983 30.5823 11.9801C30.6172 12.1246 30.6318 12.2732 30.6257 12.4217C30.6241 12.5502 30.6086 12.6693 30.5968 12.856C30.4786 14.7633 26.941 28.9985 26.941 28.9985C26.941 28.9985 26.7293 29.8315 25.971 29.8601C25.7846 29.8661 25.5989 29.8345 25.425 29.7672C25.2511 29.7 25.0926 29.5984 24.9588 29.4685C23.4706 28.1885 18.3272 24.7318 17.1906 23.9716C17.165 23.9541 17.1434 23.9314 17.1273 23.9049C17.1112 23.8783 17.101 23.8487 17.0974 23.8179C17.0815 23.7377 17.1686 23.6385 17.1686 23.6385C17.1686 23.6385 26.1247 15.6776 26.363 14.8419C26.3815 14.7772 26.3118 14.7452 26.2182 14.7736C25.6233 14.9924 15.3115 21.5044 14.1734 22.2231C14.0915 22.2479 14.0049 22.2532 13.9205 22.2385Z" fill="white"/>
</g>
<defs>
<linearGradient id="paint0_linear_84_193" x1="20.5" y1="41" x2="20.5" y2="0" gradientUnits="userSpaceOnUse">
<stop stop-color="#1D93D2"/>
<stop offset="1" stop-color="#38B0E3"/>
</linearGradient>
<clipPath id="clip0_84_193">
<rect width="41" height="41" fill="white"/>
</clipPath>
</defs>
</svg>
