<svg width="71" height="68" viewBox="0 0 71 68" fill="none" xmlns="http://www.w3.org/2000/svg">
<path d="M30.0114 1L1 67H14.3295L20.6023 52.2188L25.6477 43.075L32 23.5L36 35L41 23.5L45.25 43.075L51.1818 52.2188L57.4545 67H70L44.9091 1H30.0114Z" fill="#FF3D00" fill-opacity="0.89"/>
<path d="M25.6477 43.075L20.6023 52.2188H51.1818L45.25 43.075H25.6477Z" fill="#FF3D00" fill-opacity="0.89"/>
<path d="M45.25 43.075L41 23.5L36 35L32 23.5L25.6477 43.075H45.25Z" fill="#5050A9"/>
<path d="M25.6477 43.075L20.6023 52.2188M25.6477 43.075H45.25M25.6477 43.075L32 23.5L36 35L41 23.5L45.25 43.075M45.25 43.075L51.1818 52.2188M20.6023 52.2188L14.3295 67H1L30.0114 1H44.9091L70 67H57.4545L51.1818 52.2188M20.6023 52.2188H51.1818" stroke="#1E1E1E"/>
</svg>
