<svg width="64" height="32" viewBox="0 0 64 32" fill="none" xmlns="http://www.w3.org/2000/svg">
<g clip-path="url(#clip0_79_151)">
<path d="M56.4706 0H7.52942C3.37104 0 0 3.37104 0 7.52942V24.4706C0 28.629 3.37104 32 7.52942 32H56.4706C60.629 32 64 28.629 64 24.4706V7.52942C64 3.37104 60.629 0 56.4706 0Z" fill="#CCC9C9"/>
<path d="M32.8285 13.4401C32.8285 15.5835 34.6797 16.7528 36.1411 17.4347C37.6026 18.1168 38.0898 18.6039 38.0898 19.2859C38.0898 20.2602 36.9205 20.7474 35.8489 20.7474C33.9002 20.7474 32.8285 20.2602 31.9516 19.7731L31.2697 22.9883C32.1465 23.3781 33.8028 23.7678 35.4592 23.7678C39.4538 23.7678 42.0844 21.8191 42.0844 18.7014C42.0844 14.8041 36.7257 14.6093 36.7257 12.8555C36.7257 12.3683 37.2129 11.7838 38.382 11.5889C38.9666 11.4915 40.4281 11.4915 42.1818 12.271L42.8638 9.1532C41.9869 8.86092 40.7203 8.47119 39.2589 8.47119C35.5565 8.56862 32.8285 10.6147 32.8285 13.4401ZM49.2942 8.86091C48.5148 8.86091 47.9302 9.25063 47.6379 9.93264L41.8896 23.5729H45.8842L46.6636 21.332H51.5352L52.0222 23.5729H55.5298L52.5094 8.86091H49.2942ZM49.8788 12.8555L51.048 18.409H47.9302L49.8788 12.8555ZM27.957 8.86091L24.8393 23.5729H28.639L31.7568 8.86091H27.957ZM22.4035 8.86091L18.4088 18.8962L16.8499 10.3224C16.6551 9.34806 15.8756 8.86091 15.0962 8.86091H8.56835L8.47095 9.25063C9.83497 9.54293 11.2964 10.0301 12.2707 10.5172C12.8553 10.8095 12.9528 11.1018 13.1476 11.7838L16.168 23.5729H20.1626L26.3006 8.86091H22.4035Z" fill="#1A1F71"/>
</g>
<defs>
<clipPath id="clip0_79_151">
<rect width="64" height="32" fill="white"/>
</clipPath>
</defs>
</svg>
