<svg width="40" height="40" viewBox="0 0 40 40" fill="none" xmlns="http://www.w3.org/2000/svg">
<path d="M0 19.2C0 10.149 0 5.62355 2.81177 2.81177C5.62355 0 10.149 0 19.2 0H20.8C29.851 0 34.3764 0 37.1882 2.81177C40 5.62355 40 10.149 40 19.2V20.8C40 29.851 40 34.3764 37.1882 37.1882C34.3764 40 29.851 40 20.8 40H19.2C10.149 40 5.62355 40 2.81177 37.1882C0 34.3764 0 29.851 0 20.8V19.2Z" fill="#0077FF"/>
<path d="M21.1611 29C12.2779 29 7.21112 22.6186 7 12H11.4497C11.5959 19.7938 14.8762 23.0951 17.4746 23.7758V12H21.6647V18.7217C24.2306 18.4324 26.9261 15.3694 27.8355 12H32.0254C31.3271 16.1522 28.404 19.2152 26.3253 20.4745C28.404 21.4955 31.7333 24.1672 33 29H28.3877C27.3971 25.7668 24.9289 23.2653 21.6647 22.9249V29H21.1611Z" fill="white"/>
</svg>
