<svg width="101" height="24" viewBox="0 0 101 24" fill="none" xmlns="http://www.w3.org/2000/svg">
<path d="M31.8519 4.39511C31.4873 3.04078 30.4195 1.97295 29.0651 1.60832C26.5909 0.931152 16.6939 0.931152 16.6939 0.931152C16.6939 0.931152 6.79682 0.931152 4.32256 1.58227C2.99427 1.9469 1.90039 3.04078 1.53576 4.39511C0.884644 6.86937 0.884644 12.0002 0.884644 12.0002C0.884644 12.0002 0.884644 17.1571 1.53576 19.6053C1.90039 20.9596 2.96823 22.0275 4.32256 22.3921C6.82286 23.0693 16.6939 23.0693 16.6939 23.0693C16.6939 23.0693 26.5909 23.0693 29.0651 22.4181C30.4195 22.0535 31.4873 20.9857 31.8519 19.6313C32.5031 17.1571 32.5031 12.0262 32.5031 12.0262C32.5031 12.0262 32.5291 6.86937 31.8519 4.39511Z" fill="#FF0000"/>
<path d="M13.5424 7.26025V16.7406L21.7726 12.0004L13.5424 7.26025Z" fill="white"/>
<path d="M46.8016 21.0899C46.1765 20.6732 45.7338 20.022 45.4733 19.1105C45.2129 18.2249 45.0826 17.0269 45.0826 15.5684V13.5629C45.0826 12.0784 45.2389 10.8803 45.5254 9.96874C45.8379 9.05717 46.3067 8.40605 46.9318 7.98933C47.5829 7.57262 48.4164 7.36426 49.4582 7.36426C50.4739 7.36426 51.3074 7.57262 51.9324 7.98933C52.5575 8.40605 53.0003 9.08322 53.2868 9.96874C53.5733 10.8543 53.7295 12.0523 53.7295 13.5629V15.5684C53.7295 17.0529 53.5993 18.2249 53.3128 19.1365C53.0263 20.022 52.5836 20.6992 51.9585 21.1159C51.3334 21.5326 50.4739 21.741 49.4061 21.741C48.3122 21.715 47.4267 21.5066 46.8016 21.0899ZM50.3177 18.9021C50.5 18.4594 50.5781 17.7041 50.5781 16.6883V12.3649C50.5781 11.3752 50.5 10.6459 50.3177 10.1771C50.1353 9.70829 49.8488 9.49993 49.4061 9.49993C48.9894 9.49993 48.6768 9.73434 48.5206 10.1771C48.3382 10.6459 48.2601 11.3752 48.2601 12.3649V16.6883C48.2601 17.7041 48.3382 18.4594 48.5206 18.9021C48.6768 19.3449 48.9894 19.5793 49.4321 19.5793C49.8488 19.5793 50.1353 19.3709 50.3177 18.9021Z" fill="#282828"/>
<path d="M94.8803 15.5943V16.2975C94.8803 17.183 94.9064 17.8602 94.9585 18.3029C95.0106 18.7457 95.1147 19.0843 95.2971 19.2666C95.4533 19.4749 95.7138 19.5791 96.0784 19.5791C96.5472 19.5791 96.8597 19.3968 97.0421 19.0322C97.2244 18.6676 97.3025 18.0685 97.3285 17.209L100.011 17.3653C100.037 17.4955 100.037 17.6518 100.037 17.8602C100.037 19.1364 99.6986 20.1 98.9954 20.7251C98.2922 21.3502 97.3025 21.6627 96.0263 21.6627C94.4897 21.6627 93.4218 21.1679 92.7967 20.2042C92.1717 19.2405 91.8591 17.756 91.8591 15.7245V13.3023C91.8591 11.2187 92.1717 9.70814 92.8228 8.74448C93.4739 7.78082 94.5678 7.31201 96.1044 7.31201C97.1723 7.31201 98.0057 7.52037 98.5787 7.91104C99.1517 8.30171 99.5424 8.92679 99.7768 9.73418C100.011 10.5676 100.115 11.7136 100.115 13.1721V15.5422H94.8803V15.5943ZM95.271 9.76023C95.1147 9.96858 95.0106 10.2811 94.9585 10.7239C94.9064 11.1666 94.8803 11.8438 94.8803 12.7554V13.7451H97.1723V12.7554C97.1723 11.8699 97.1462 11.1927 97.0941 10.7239C97.0421 10.2551 96.9118 9.94254 96.7556 9.76023C96.5993 9.57791 96.3388 9.47373 96.0263 9.47373C95.6617 9.44769 95.4273 9.55187 95.271 9.76023Z" fill="#282828"/>
<path d="M39.1965 15.3337L35.6544 2.49365H38.7538L40.0039 8.30165C40.3164 9.73411 40.5508 10.9582 40.7071 11.974H40.7852C40.8894 11.2447 41.1238 10.0467 41.4885 8.32769L42.7907 2.49365H45.89L42.2958 15.3337V21.4803H39.2226V15.3337H39.1965Z" fill="#282828"/>
<path d="M63.8089 7.62451V21.5064H61.3607L61.1002 19.8135H61.0221C60.3709 21.0897 59.3552 21.7408 58.0269 21.7408C57.1153 21.7408 56.4382 21.4283 55.9954 20.8292C55.5527 20.2302 55.3443 19.2926 55.3443 17.9904V7.62451H58.4697V17.808C58.4697 18.4331 58.5478 18.8759 58.678 19.1363C58.8083 19.3968 59.0427 19.527 59.3552 19.527C59.6156 19.527 59.8761 19.4489 60.1365 19.2665C60.397 19.1103 60.5793 18.9019 60.6835 18.6415V7.62451H63.8089Z" fill="#282828"/>
<path d="M79.8264 7.62451V21.5064H77.3782L77.1178 19.8135H77.0396C76.3885 21.0897 75.3728 21.7408 74.0445 21.7408C73.1329 21.7408 72.4558 21.4283 72.013 20.8292C71.5702 20.2302 71.3619 19.2926 71.3619 17.9904V7.62451H74.4873V17.808C74.4873 18.4331 74.5654 18.8759 74.6956 19.1363C74.8258 19.3968 75.0602 19.527 75.3728 19.527C75.6332 19.527 75.8937 19.4489 76.1541 19.2665C76.4146 19.1103 76.5969 18.9019 76.7011 18.6415V7.62451H79.8264Z" fill="#282828"/>
<path d="M72.2995 5.02H69.2002V21.4803H66.1529V5.02H63.0536V2.49365H72.2995V5.02Z" fill="#282828"/>
<path d="M90.1662 9.83838C89.9839 8.95285 89.6714 8.32778 89.2547 7.93711C88.8379 7.54643 88.2389 7.33807 87.5097 7.33807C86.9367 7.33807 86.3897 7.49434 85.8949 7.83293C85.4 8.14546 85.0094 8.58823 84.7489 9.10912H84.7229V1.79053H81.7017V21.4804H84.2801L84.5926 20.1782H84.6708C84.9052 20.647 85.2698 21.0116 85.7647 21.2981C86.2595 21.5585 86.7804 21.7148 87.3794 21.7148C88.4473 21.7148 89.2026 21.22 89.6974 20.2563C90.1923 19.2926 90.4527 17.756 90.4527 15.6985V13.5107C90.4267 11.922 90.3485 10.6979 90.1662 9.83838ZM87.3013 15.4901C87.3013 16.5059 87.2492 17.2872 87.1711 17.8602C87.0929 18.4332 86.9367 18.8499 86.7544 19.0843C86.546 19.3187 86.2856 19.4489 85.973 19.4489C85.7126 19.4489 85.4782 19.3968 85.2698 19.2666C85.0614 19.1364 84.8791 18.9541 84.7489 18.7197V10.8541C84.8531 10.4895 85.0354 10.177 85.2959 9.91651C85.5563 9.68211 85.8428 9.55188 86.1293 9.55188C86.4418 9.55188 86.7023 9.68211 86.8585 9.91651C87.0409 10.177 87.145 10.5937 87.2232 11.1667C87.3013 11.7657 87.3273 12.5991 87.3273 13.667V15.4901H87.3013Z" fill="#282828"/>
</svg>
