<svg width="64" height="32" viewBox="0 0 64 32" fill="none" xmlns="http://www.w3.org/2000/svg">
<g clip-path="url(#clip0_81_163)">
<path d="M55.3411 9.13432V16.9578H52.5358V11.4698H49.8347V16.9578H47.0294V9.13379H55.3411V9.13432Z" fill="black"/>
<path fill-rule="evenodd" clip-rule="evenodd" d="M41.2681 17.2373C43.7793 17.2373 45.6442 15.704 45.6442 13.3795C45.6442 11.1296 44.2683 9.66881 41.9689 9.66881C40.9076 9.66881 40.032 10.0408 39.3724 10.6827C39.5299 9.35601 40.6565 8.38748 41.8968 8.38748C42.1831 8.38748 44.3382 8.38295 44.3382 8.38295L45.5569 6.06055C45.5569 6.06055 42.8512 6.12188 41.5934 6.12188C38.7196 6.17175 36.7784 8.77308 36.7784 11.9325C36.7784 15.6133 38.6717 17.2373 41.2681 17.2373ZM41.2833 11.7259C42.2158 11.7259 42.8622 12.336 42.8622 13.3792C42.8622 14.3181 42.2878 15.0917 41.2833 15.0939C40.3225 15.0939 39.6761 14.3771 39.6761 13.3952C39.6761 12.3517 40.3225 11.7259 41.2833 11.7259Z" fill="black"/>
<path d="M34.495 14.3385C34.495 14.3385 33.8326 14.7187 32.8431 14.7907C31.7056 14.8243 30.692 14.1089 30.692 12.8377C30.692 11.5977 31.5864 10.887 32.8144 10.887C33.5674 10.887 34.5636 11.4067 34.5636 11.4067C34.5636 11.4067 35.2925 10.0747 35.6701 9.40859C34.9787 8.88672 34.0578 8.60059 32.9866 8.60059C30.2834 8.60059 28.1896 10.3558 28.1896 12.8219C28.1896 15.3195 30.1575 17.0339 32.9866 16.9822C33.7774 16.9529 34.8683 16.6763 35.5332 16.251L34.495 14.3385Z" fill="black"/>
<path d="M0 6.96533L3.89141 13.892V18.1171L0.0045523 25.0301L0 6.96533Z" fill="#5B57A2"/>
<path d="M14.9414 11.3717L18.5878 9.14609L26.0504 9.13916L14.9414 15.9162V11.3717Z" fill="#D90751"/>
<path d="M14.9208 6.92453L14.9414 16.0952L11.0409 13.7085V0L14.9208 6.92453Z" fill="#FAB718"/>
<path d="M26.0504 9.13893L18.5875 9.14587L14.9208 6.92453L11.0409 0L26.0504 9.13893Z" fill="#ED6F26"/>
<path d="M14.9414 25.0685V20.6192L11.0409 18.2778L11.043 32L14.9414 25.0685Z" fill="#63B22F"/>
<path d="M18.5787 22.8632L3.89115 13.892L0 6.96533L26.0346 22.8541L18.5787 22.8632Z" fill="#1487C9"/>
<path d="M11.0433 31.9999L14.9412 25.0684L18.5785 22.8631L26.0343 22.854L11.0433 31.9999Z" fill="#017F36"/>
<path d="M0.00463867 25.03L11.0729 18.278L7.35179 16.0044L3.8915 18.1169L0.00463867 25.03Z" fill="#984995"/>
<path d="M30.6928 22.2232C30.6071 22.332 30.4944 22.4141 30.3591 22.4696C30.2204 22.5258 30.0719 22.5544 29.9221 22.5538C29.7731 22.5558 29.625 22.5311 29.4848 22.4808C29.3589 22.4352 29.2439 22.3642 29.1469 22.2722C29.0511 22.1801 28.9759 22.0689 28.9262 21.9458C28.8724 21.8111 28.8456 21.6671 28.8472 21.5221C28.8472 21.3781 28.8721 21.2448 28.9238 21.1184C28.9734 20.9917 29.0454 20.8832 29.1356 20.792C29.2259 20.6989 29.3341 20.628 29.4556 20.5725C29.5796 20.5192 29.7149 20.4904 29.8635 20.4904C30.0236 20.4904 30.1722 20.5104 30.3075 20.5501C30.4427 20.5901 30.5576 20.6568 30.6521 20.7501L30.4877 21.0274C30.4082 20.9557 30.3145 20.9012 30.2127 20.8674C30.1159 20.8364 30.0147 20.8207 29.913 20.821C29.823 20.821 29.7373 20.8386 29.6541 20.872C29.572 20.9049 29.497 20.9531 29.4331 21.0141C29.3679 21.0768 29.3164 21.1524 29.2821 21.236C29.2438 21.3224 29.2259 21.4178 29.2259 21.5242C29.2259 21.633 29.246 21.7306 29.2843 21.8149C29.3228 21.9016 29.3745 21.9749 29.4398 22.0368C29.5052 22.0992 29.5818 22.1456 29.6696 22.1768C29.7577 22.2101 29.8501 22.2256 29.9492 22.2256C30.0707 22.2256 30.1813 22.201 30.2759 22.1544C30.3695 22.1093 30.4537 22.0469 30.5238 21.9704L30.6928 22.2232ZM31.1569 22.5072V20.5325H31.513V22.0037L32.6712 20.5325H33.0273V22.5074H32.6712V21.0362L31.513 22.5074L31.1569 22.5072ZM35.3865 22.2232C35.2989 22.3329 35.1839 22.4178 35.0531 22.4696C34.9142 22.5258 34.7657 22.5544 34.6158 22.5538C34.4669 22.5558 34.3189 22.5311 34.1788 22.4808C34.0528 22.4352 33.9377 22.3642 33.8406 22.2722C33.7448 22.1801 33.6696 22.0689 33.6199 21.9458C33.5661 21.8111 33.5393 21.6671 33.5409 21.5221C33.5409 21.3781 33.5658 21.2448 33.6175 21.1184C33.6673 20.9917 33.7394 20.8832 33.8293 20.792C33.9196 20.6989 34.0278 20.628 34.1493 20.5725C34.2777 20.5162 34.4169 20.4882 34.5572 20.4904C34.7173 20.4904 34.8659 20.5104 35.0011 20.5501C35.1364 20.5901 35.2513 20.6568 35.3461 20.7501L35.1814 21.0274C35.102 20.9556 35.0084 20.9011 34.9066 20.8674C34.8098 20.8364 34.7087 20.8207 34.607 20.821C34.428 20.8216 34.2561 20.8907 34.1268 21.0141C34.0621 21.0773 34.0108 21.1527 33.9758 21.236C33.9375 21.3224 33.9196 21.4178 33.9196 21.5242C33.9196 21.633 33.9399 21.7306 33.9782 21.8149C34.0165 21.9016 34.0682 21.9749 34.1335 22.0368C34.1989 22.0992 34.2757 22.1456 34.3636 22.1768C34.4514 22.2077 34.5438 22.2256 34.6429 22.2256C34.7647 22.2256 34.8729 22.201 34.9695 22.1544C35.0632 22.1093 35.1474 22.0469 35.2175 21.9704L35.3865 22.2232ZM35.5691 20.5325H37.3965V20.8832H36.6619V22.5072H36.3058V20.8832H35.5713V20.5325H35.5691Z" fill="black"/>
<path fill-rule="evenodd" clip-rule="evenodd" d="M39.0598 22.4875C39.195 22.4454 39.3099 22.3808 39.4089 22.2923L39.3008 22.0171C39.2354 22.075 39.1476 22.1238 39.0418 22.1638C38.9358 22.2038 38.8163 22.2235 38.6857 22.2235C38.4897 22.2235 38.3274 22.1726 38.1988 22.0683C38.0706 21.9638 38.0007 21.8176 37.9849 21.631H39.5262C39.542 21.5622 39.5487 21.4846 39.5487 21.3936C39.5487 21.2582 39.5238 21.1363 39.4743 21.0254C39.4282 20.9176 39.3608 20.8202 39.2761 20.739C39.1903 20.6584 39.0891 20.5959 38.9786 20.555C38.8629 20.5103 38.7399 20.4876 38.6158 20.4883C38.449 20.4883 38.3025 20.5171 38.1742 20.5704C38.0529 20.6212 37.9433 20.696 37.8518 20.7902C37.763 20.8838 37.6948 20.9949 37.6515 21.1163C37.6039 21.2456 37.5802 21.3824 37.5816 21.52C37.5816 21.6755 37.6087 21.8174 37.6582 21.944C37.7064 22.0667 37.7801 22.1779 37.8746 22.2702C37.9669 22.3608 38.0794 22.4299 38.2125 22.4787C38.355 22.529 38.5053 22.5538 38.6565 22.5518C38.7934 22.5509 38.9294 22.5291 39.0598 22.4875ZM38.1584 20.9675C38.2687 20.8678 38.4152 20.819 38.6 20.819C38.7735 20.819 38.9133 20.8656 39.0148 20.959C39.1163 21.052 39.1701 21.1808 39.1792 21.3448H37.9624C37.9796 21.1996 38.0493 21.0653 38.1584 20.9675Z" fill="black"/>
<path d="M40.0331 20.5322H40.3576L41.1283 21.5109L41.8583 20.5322H42.1737V22.5072H41.8178V21.0672L41.1238 21.9834H41.1101L40.3892 21.0669V22.5069H40.0331V20.5322Z" fill="black"/>
<path fill-rule="evenodd" clip-rule="evenodd" d="M43.1426 20.539C43.0346 20.5671 42.9313 20.6111 42.8363 20.6696L42.9308 20.9496C43.012 20.9096 43.0931 20.8763 43.1742 20.8475C43.2554 20.8184 43.359 20.8051 43.483 20.8051C43.5821 20.8051 43.6611 20.8208 43.7218 20.8518C43.7826 20.8806 43.8276 20.9251 43.8592 20.9784C43.8908 21.0318 43.9112 21.0982 43.9224 21.1758C43.9337 21.2534 43.9382 21.3376 43.9382 21.4288C43.8653 21.3783 43.7823 21.3442 43.6948 21.3288C43.6102 21.3121 43.5242 21.3032 43.438 21.3022C43.332 21.3022 43.2329 21.3179 43.1381 21.3443C43.0436 21.371 42.9624 21.411 42.8971 21.4643C42.8304 21.5176 42.7765 21.585 42.7393 21.6616C42.6997 21.7456 42.6796 21.8374 42.6807 21.9302C42.6807 22.1232 42.7372 22.2742 42.8497 22.3808C42.9624 22.4872 43.111 22.5403 43.2958 22.5403C43.4626 22.5403 43.5957 22.5115 43.6969 22.4539C43.7984 22.396 43.8796 22.3296 43.9382 22.2542V22.5094H44.2716V21.2979C44.2716 21.0403 44.2154 20.8408 44.1005 20.7008C43.9878 20.5611 43.7872 20.4902 43.5033 20.4902C43.3769 20.4902 43.2575 20.5078 43.1426 20.539ZM43.7379 22.139C43.6568 22.1966 43.5507 22.223 43.4201 22.223C43.3052 22.223 43.2149 22.1942 43.152 22.1387C43.0888 22.0811 43.0572 22.0056 43.0572 21.9123C43.0572 21.8571 43.0685 21.8104 43.0934 21.7683C43.1183 21.7262 43.152 21.6928 43.1903 21.6662C43.2322 21.6383 43.2787 21.618 43.3277 21.6062C43.3796 21.5928 43.4313 21.5862 43.4854 21.5862C43.6613 21.5862 43.8121 21.6283 43.9361 21.7171V21.9678C43.8776 22.033 43.811 22.0907 43.7379 22.139ZM47.4154 19.8376C47.4874 19.8046 47.5549 19.7491 47.6181 19.667L47.4242 19.3896C47.3747 19.4563 47.3184 19.5027 47.2552 19.5272C47.1883 19.5533 47.1188 19.5726 47.048 19.5848L46.9805 19.5968C46.9218 19.607 46.8589 19.6182 46.7912 19.6294C46.6825 19.6494 46.5766 19.6822 46.4757 19.727C46.3156 19.7958 46.1873 19.8888 46.0904 20.0064C45.9934 20.124 45.9169 20.2571 45.8649 20.4038C45.8123 20.5524 45.7768 20.7064 45.7591 20.863C45.7409 21.023 45.7321 21.1758 45.7321 21.3222C45.7321 21.511 45.7567 21.6816 45.8063 21.8347C45.8561 21.988 45.9257 22.1166 46.0181 22.2208C46.1105 22.3275 46.2211 22.4075 46.3517 22.4651C46.4824 22.5227 46.6289 22.5515 46.7933 22.5515C46.9443 22.5515 47.0841 22.5227 47.2102 22.4694C47.3318 22.4181 47.4421 22.3436 47.5348 22.2499C47.6248 22.1587 47.6971 22.0499 47.7466 21.928C47.7983 21.8059 47.8232 21.675 47.8232 21.5374C47.8232 21.3888 47.8007 21.2536 47.7579 21.1336C47.7184 21.0192 47.6555 20.9143 47.5731 20.8254C47.4905 20.738 47.3897 20.6697 47.2777 20.6254C47.1544 20.577 47.0228 20.5529 46.8902 20.5544C46.8046 20.5544 46.7213 20.5656 46.6401 20.5878C46.5612 20.6099 46.4854 20.642 46.4147 20.6832C46.346 20.7224 46.2831 20.7709 46.2278 20.8272C46.1737 20.883 46.1287 20.9451 46.0971 21.016H46.088C46.0949 20.9251 46.1062 20.832 46.1263 20.7366C46.1466 20.6411 46.1758 20.5499 46.2144 20.4635C46.2527 20.3771 46.3022 20.2992 46.363 20.2283C46.4282 20.1567 46.5081 20.1 46.5973 20.0619C46.6954 20.0154 46.7992 19.9819 46.906 19.9622L46.9767 19.9494C47.0472 19.9366 47.1144 19.9243 47.1786 19.911C47.2643 19.8934 47.3431 19.8707 47.4154 19.8376ZM46.1624 21.735C46.1276 21.623 46.1108 21.5061 46.1129 21.3888C46.128 21.3215 46.1555 21.2576 46.194 21.2003C46.2323 21.1403 46.2818 21.0872 46.3405 21.0403C46.4728 20.9371 46.6364 20.8816 46.8046 20.883C47.0142 20.883 47.172 20.9472 47.2823 21.0739C47.3929 21.2024 47.447 21.3622 47.447 21.5552C47.447 21.6507 47.4288 21.7374 47.3974 21.8171C47.367 21.8958 47.321 21.9675 47.2621 22.0281C47.2033 22.0887 47.1328 22.1369 47.0549 22.1699C46.9738 22.2054 46.8857 22.2232 46.7866 22.2232C46.6875 22.2232 46.5973 22.2032 46.514 22.1632C46.4312 22.1241 46.3581 22.0672 46.2998 21.9968C46.2387 21.9184 46.1922 21.8297 46.1624 21.735ZM50.5543 20.5323H50.1982V22.5072H50.5543V20.5323ZM48.3368 20.5323H48.693V21.1248H49.0221C49.1774 21.1248 49.3035 21.1448 49.405 21.1824C49.5065 21.2203 49.5876 21.2712 49.6484 21.3334C49.7092 21.3955 49.752 21.4688 49.7769 21.5507C49.8016 21.6328 49.8152 21.7171 49.8152 21.8059C49.8152 21.8947 49.8016 21.9792 49.7724 22.0635C49.7453 22.1478 49.6979 22.2208 49.6347 22.2875C49.5718 22.3542 49.4861 22.4075 49.3779 22.4475C49.2698 22.4872 49.1391 22.5094 48.9814 22.5094H48.3347V20.5323H48.3368ZM48.693 21.4552V22.1787H48.9522C49.1302 22.1787 49.2564 22.1478 49.3284 22.0854C49.4007 22.0232 49.4366 21.9347 49.4366 21.8171C49.4366 21.6971 49.3983 21.6064 49.3263 21.544C49.2518 21.4819 49.1278 21.4507 48.9567 21.4507H48.693V21.4552Z" fill="black"/>
<path d="M52.9091 22.2232C52.8234 22.332 52.7107 22.4141 52.5754 22.4696C52.4367 22.5258 52.2882 22.5544 52.1384 22.5538C51.9894 22.5558 51.8413 22.5311 51.7011 22.4808C51.5752 22.4353 51.4601 22.3643 51.3632 22.2722C51.2674 22.18 51.1922 22.0688 51.1423 21.9458C51.0887 21.811 51.0619 21.6671 51.0635 21.5221C51.0635 21.3781 51.0882 21.2448 51.1401 21.1184C51.1897 20.9917 51.2617 20.8832 51.3519 20.792C51.4422 20.6989 51.5501 20.628 51.6719 20.5725C51.8004 20.5162 51.9395 20.4881 52.0798 20.4904C52.2396 20.4904 52.3885 20.5104 52.5238 20.5501C52.659 20.5901 52.7739 20.6568 52.8684 20.7501L52.704 21.0274C52.6245 20.9557 52.5308 20.9012 52.429 20.8674C52.3322 20.8364 52.231 20.8207 52.1293 20.821C52.0393 20.821 51.9537 20.8386 51.8701 20.872C51.7881 20.9049 51.7132 20.9531 51.6495 21.0141C51.5847 21.0772 51.5333 21.1527 51.4984 21.236C51.4601 21.3224 51.4422 21.4178 51.4422 21.5242C51.4422 21.633 51.4623 21.7306 51.5006 21.8149C51.5389 21.9016 51.5908 21.9749 51.6562 22.0368C51.7215 22.0992 51.7981 22.1456 51.8859 22.1768C51.974 22.2077 52.0664 22.2256 52.1655 22.2256C52.287 22.2256 52.3952 22.201 52.4922 22.1544C52.5858 22.1093 52.67 22.0469 52.7401 21.9704L52.9091 22.2232ZM53.0915 20.5325H54.9191V20.8832H54.1843V22.5072H53.8284V20.8832H53.0939V20.5325H53.0915Z" fill="black"/>
<path fill-rule="evenodd" clip-rule="evenodd" d="M55.6628 20.533H55.3066V23.3863H55.6628V22.4167C55.7348 22.4634 55.8205 22.4967 55.9196 22.5188C56.0187 22.541 56.1223 22.5519 56.2283 22.5519C56.3861 22.5519 56.528 22.5231 56.6565 22.47C56.7798 22.4175 56.8915 22.3414 56.9854 22.246C57.0778 22.1503 57.1476 22.0394 57.1972 21.9084C57.2467 21.7778 57.2716 21.6378 57.2716 21.4892C57.2716 21.3426 57.2491 21.2074 57.2063 21.0852C57.1659 20.9692 57.1032 20.8622 57.0215 20.7703C56.9414 20.6806 56.842 20.6101 56.7307 20.5639C56.6091 20.5118 56.4777 20.4861 56.3454 20.4884C56.2059 20.4884 56.0752 20.5151 55.9512 20.5684C55.8272 20.6218 55.7303 20.6858 55.6628 20.7658V20.533ZM55.9108 20.8991C56.0123 20.8458 56.1226 20.8191 56.242 20.8191C56.3456 20.8191 56.438 20.8346 56.5216 20.8679C56.6027 20.9012 56.6702 20.9479 56.7267 21.01C56.7829 21.0722 56.8258 21.1434 56.8528 21.2274C56.882 21.3116 56.8957 21.4028 56.8957 21.5026C56.8957 21.6092 56.8775 21.7044 56.8461 21.7932C56.8166 21.8774 56.7697 21.9545 56.7085 22.0196C56.647 22.0839 56.5725 22.1346 56.49 22.1682C56.3979 22.2065 56.2989 22.2254 56.1992 22.2236C56.1025 22.2236 56.0122 22.2127 55.9266 22.1906C55.8327 22.1651 55.7437 22.1246 55.6631 22.0706V21.0919C55.726 21.0167 55.8095 20.9524 55.9108 20.8991ZM60.0027 20.5327H59.6466V22.5076H60.0027V20.5327ZM57.7831 20.5327H58.1392V21.1252H58.4681C58.6237 21.1252 58.7498 21.1452 58.8513 21.1828C58.9528 21.2207 59.0339 21.2716 59.0947 21.3338C59.1555 21.3959 59.1983 21.4692 59.223 21.5511C59.2479 21.6332 59.2613 21.7175 59.2613 21.8063C59.2613 21.8951 59.2479 21.9796 59.2187 22.0639C59.1916 22.1482 59.1442 22.2212 59.081 22.2879C59.0181 22.3546 58.9324 22.4079 58.8242 22.4479C58.716 22.4876 58.5854 22.5098 58.4276 22.5098H57.781V20.5327H57.7831ZM58.1417 21.4556V22.1791H58.4009C58.5787 22.1791 58.7051 22.1482 58.7771 22.0858C58.8491 22.0236 58.8853 21.9351 58.8853 21.8175C58.8853 21.6975 58.847 21.6068 58.775 21.5444C58.7005 21.4823 58.5765 21.4511 58.4054 21.4511H58.1417V21.4556Z" fill="black"/>
<path d="M61.7109 21.4842L62.4724 22.5072H62.0354L61.4471 21.7082L60.8499 22.5072H60.4354L61.1924 21.5018L60.4804 20.5322H60.9177L61.4608 21.2778L62.0126 20.5322H62.4274L61.7109 21.4842ZM30.4293 24.948H29.3365V26.5944H28.9803V24.6197H30.7852V26.5944H30.4293V24.948ZM32.8064 24.9701H32.1035L32.0807 25.3029C32.0561 25.5848 32.0224 25.8112 31.975 25.984C31.9276 26.1573 31.8689 26.2904 31.8014 26.3834C31.734 26.4768 31.655 26.541 31.5647 26.5722C31.4716 26.6058 31.3732 26.6224 31.2742 26.621L31.2471 26.2792C31.2854 26.2813 31.3304 26.2725 31.3799 26.2504C31.4298 26.2282 31.4793 26.1794 31.5264 26.1064C31.5738 26.0306 31.6167 25.9242 31.655 25.7866C31.6933 25.6469 31.7182 25.465 31.7315 25.2362L31.7677 24.6216H33.1626V26.5965H32.8064V24.9701Z" fill="black"/>
<path fill-rule="evenodd" clip-rule="evenodd" d="M34.1226 24.6245C34.0075 24.6554 33.9038 24.6997 33.816 24.7552L33.9108 25.0349C33.9919 24.9949 34.0731 24.9615 34.1539 24.9327C34.2351 24.9039 34.339 24.8906 34.4627 24.8906C34.5621 24.8906 34.6408 24.9061 34.7016 24.937C34.7626 24.9661 34.8076 25.0104 34.8392 25.0637C34.8705 25.117 34.8909 25.1837 34.9021 25.261C34.9134 25.3389 34.9179 25.4231 34.9179 25.5141C34.8451 25.4636 34.762 25.4296 34.6745 25.4144C34.5899 25.3976 34.504 25.3887 34.4177 25.3877C34.3119 25.3877 34.2126 25.4032 34.1181 25.4298C34.0233 25.4565 33.9421 25.4965 33.8768 25.5498C33.8101 25.6031 33.7562 25.6705 33.7191 25.7471C33.6795 25.8311 33.6595 25.9229 33.6607 26.0157C33.6607 26.2085 33.7169 26.3597 33.8297 26.4661C33.9421 26.5725 34.091 26.6258 34.2758 26.6258C34.4426 26.6258 34.5754 26.597 34.6769 26.5392C34.7781 26.4816 34.8593 26.4149 34.9179 26.3394V26.5946H35.2516V25.3832C35.2516 25.1258 35.1951 24.9261 35.0802 24.7864C34.9675 24.6464 34.7669 24.5757 34.4831 24.5757C34.3613 24.5758 34.2401 24.5924 34.1226 24.6245ZM34.7198 26.224C34.6389 26.2818 34.5329 26.3085 34.4022 26.3085C34.2849 26.3085 34.1971 26.2797 34.1341 26.224C34.0709 26.1664 34.0393 26.0909 34.0393 25.9978C34.0393 25.9424 34.0506 25.8957 34.0755 25.8536C34.1001 25.8114 34.1341 25.7781 34.1724 25.7514C34.2107 25.7248 34.2579 25.7047 34.3098 25.6914C34.3613 25.6782 34.4143 25.6715 34.4675 25.6717C34.6432 25.6717 34.7942 25.7138 34.9182 25.8023V26.053C34.8597 26.1182 34.793 26.1757 34.7198 26.224Z" fill="black"/>
<path d="M35.6005 24.6201H37.4281V24.9705H36.6933V26.5948H36.3374V24.9708H35.6029V24.6201H35.6005Z" fill="black"/>
<path fill-rule="evenodd" clip-rule="evenodd" d="M39.0913 26.5746C39.2265 26.5325 39.3414 26.468 39.4405 26.3794L39.3323 26.1042C39.2669 26.1621 39.1791 26.2109 39.0731 26.2509C38.9673 26.2909 38.8479 26.3106 38.7172 26.3106C38.5212 26.3106 38.3589 26.2597 38.2303 26.1554C38.1018 26.0512 38.0322 25.9048 38.0164 25.7181H39.5577C39.5733 25.6496 39.5802 25.5717 39.5802 25.4808C39.5802 25.3456 39.5553 25.2234 39.5058 25.1125C39.4597 25.0048 39.3922 24.9075 39.3074 24.8264C39.2217 24.7457 39.1206 24.683 39.0101 24.6421C38.8944 24.5974 38.7714 24.5748 38.6473 24.5754C38.4805 24.5754 38.334 24.6042 38.2057 24.6576C38.0844 24.7082 37.9747 24.783 37.8833 24.8773C37.7945 24.971 37.7262 25.0821 37.6827 25.2034C37.6353 25.3327 37.6116 25.4695 37.6128 25.6072C37.6128 25.7626 37.6399 25.9045 37.6894 26.0312C37.7392 26.1576 37.8134 26.2664 37.9058 26.3573C37.9982 26.4482 38.1109 26.517 38.244 26.5658C38.3864 26.6162 38.5366 26.6411 38.6877 26.6392C38.8208 26.6392 38.956 26.6168 39.0913 26.5746ZM38.1878 25.0525C38.2981 24.9528 38.4446 24.904 38.6293 24.904C38.8053 24.904 38.9426 24.9528 39.0441 25.0437C39.1454 25.137 39.1995 25.2656 39.2086 25.4298H37.9918C38.0089 25.2845 38.0786 25.1504 38.1878 25.0525ZM39.7538 24.62H40.2044L40.8916 25.572L40.157 26.5946H39.72L40.4904 25.5717L39.7538 24.62ZM40.9794 24.62H41.3356V26.5946H40.9794V24.62ZM42.6086 26.5946L41.8245 25.5717L42.5569 24.6197H42.1151L41.4234 25.5717L42.167 26.5946H42.6086ZM44.2356 26.5746C44.3709 26.5325 44.4857 26.468 44.5848 26.3794L44.4766 26.1042C44.4113 26.1621 44.3235 26.2109 44.2177 26.2509C44.1117 26.2909 43.9922 26.3106 43.8615 26.3106C43.6655 26.3106 43.5033 26.2597 43.3747 26.1554C43.2464 26.0512 43.1766 25.9048 43.1608 25.7181H44.7021C44.7179 25.6496 44.7246 25.5717 44.7246 25.4808C44.7246 25.3456 44.7 25.2234 44.6502 25.1125C44.604 25.0049 44.5366 24.9076 44.452 24.8264C44.3663 24.7457 44.2651 24.683 44.1545 24.6421C44.0388 24.5974 43.9157 24.5748 43.7917 24.5754C43.6251 24.5754 43.4786 24.6042 43.3501 24.6576C43.2289 24.7083 43.1193 24.7831 43.0279 24.8773C42.939 24.9709 42.8707 25.082 42.8274 25.2034C42.7798 25.3327 42.7561 25.4695 42.7575 25.6072C42.7575 25.7626 42.7845 25.9045 42.8341 26.0312C42.8836 26.1576 42.958 26.2664 43.0504 26.3573C43.1428 26.4482 43.2553 26.517 43.3884 26.5658C43.5308 26.6162 43.6812 26.6411 43.8324 26.6392C43.9693 26.6381 44.1053 26.6164 44.2356 26.5746ZM43.3321 25.0525C43.4427 24.9528 43.5892 24.904 43.774 24.904C43.9475 24.904 44.087 24.9528 44.1885 25.0437C44.29 25.137 44.3441 25.2656 44.3529 25.4298H43.1361C43.1533 25.2845 43.223 25.1504 43.3321 25.0525ZM46.1693 23.9565C45.9596 23.9565 45.8447 23.841 45.8268 23.6104H45.491C45.491 23.6989 45.5068 23.7789 45.536 23.8544C45.5654 23.9298 45.6083 23.9941 45.6645 24.0474C45.7208 24.1008 45.7931 24.1429 45.8763 24.176C45.9596 24.2093 46.0566 24.2248 46.1669 24.2248C46.2684 24.2248 46.3586 24.2093 46.4398 24.176C46.5209 24.145 46.5884 24.1008 46.647 24.0474C46.7033 23.9941 46.7485 23.9298 46.7798 23.8544C46.8114 23.7789 46.8272 23.6989 46.8272 23.6104H46.4938C46.478 23.841 46.3675 23.9565 46.1693 23.9565ZM45.2069 24.6197V26.5946H45.563L46.7212 25.1234V26.5946H47.0773V24.6197H46.7212L45.563 26.0909V24.6197H45.2069Z" fill="black"/>
</g>
<defs>
<clipPath id="clip0_81_163">
<rect width="64" height="32" fill="white"/>
</clipPath>
</defs>
</svg>
